<?xml version="1.0" encoding="UTF-8" standalone="no"?><svg xmlns="http://www.w3.org/2000/svg" xmlns:xlink="http://www.w3.org/1999/xlink" contentScriptType="application/ecmascript" contentStyleType="text/css" height="328px" preserveAspectRatio="none" style="width:556px;height:328px;" version="1.1" viewBox="0 0 556 328" width="556px" zoomAndPan="magnify"><defs><filter height="300%" id="flro19btutkbf" width="300%" x="-1" y="-1"><feGaussianBlur result="blurOut" stdDeviation="2.0"/><feColorMatrix in="blurOut" result="blurOut2" type="matrix" values="0 0 0 0 0 0 0 0 0 0 0 0 0 0 0 0 0 0 .4 0"/><feOffset dx="4.0" dy="4.0" in="blurOut2" result="blurOut3"/><feBlend in="SourceGraphic" in2="blurOut3" mode="normal"/></filter></defs><g><!--cluster Home--><polygon fill="#FFFFFF" filter="url(#flro19btutkbf)" points="14,26,24,16,197,16,197,110,187,120,14,120,14,26" style="stroke: #000000; stroke-width: 1.5;"/><line style="stroke: #000000; stroke-width: 1.5;" x1="187" x2="196" y1="26" y2="17"/><line style="stroke: #000000; stroke-width: 1.5;" x1="14" x2="187" y1="26" y2="26"/><line style="stroke: #000000; stroke-width: 1.5;" x1="187" x2="187" y1="26" y2="120"/><text fill="#000000" font-family="sans-serif" font-size="14" font-weight="bold" lengthAdjust="spacingAndGlyphs" textLength="38" x="82.5" y="43.6699">Home</text><!--cluster V2Ray_Local--><polygon fill="#FFFFFF" filter="url(#flro19btutkbf)" points="216,38,226,28,415,28,415,98,405,108,216,108,216,38" style="stroke: #000000; stroke-width: 1.5;"/><line style="stroke: #000000; stroke-width: 1.5;" x1="405" x2="414" y1="38" y2="29"/><line style="stroke: #000000; stroke-width: 1.5;" x1="216" x2="405" y1="38" y2="38"/><line style="stroke: #000000; stroke-width: 1.5;" x1="405" x2="405" y1="38" y2="108"/><text fill="#000000" font-family="sans-serif" font-size="14" font-weight="bold" lengthAdjust="spacingAndGlyphs" textLength="82" x="270.5" y="55.6699">V2Ray_Local</text><path d="M340,171 C340,168 342,166 345,166 C348,166 350,168 350,171 C350,168 352,166 355,166 C358,166 360,168 360,171 C360,168 362,166 365,166 C368,166 370,168 370,171 C370,168 372,166 375,166 C378,166 380,168 380,171 C380,168 382,166 385,166 C388,166 390,168 390,171 C390,168 392,166 395,166 C398,166 400,168 400,171 C403,171 405,173 405,176 C405,179 403,181 400,181 C403,181 405,183 405,186 C405,189 403,191 400,191 C403,191 405,193 405,196 C405,199 403,201 400,201 C403,201 405,203 405,206 C405,209 403,211 400,211 C400,214 397,216 395,216 C392,216 390,214 390,211 C390,214 387,216 385,216 C382,216 380,214 380,211 C380,214 377,216 375,216 C372,216 370,214 370,211 C370,214 367,216 365,216 C362,216 360,214 360,211 C360,214 357,216 355,216 C352,216 350,214 350,211 C350,214 347,216 345,216 C342,216 340,214 340,211 C337,211 335,209 335,206 C335,203 337,201 340,201 C337,201 335,199 335,196 C335,193 337,191 340,191 C337,191 335,189 335,186 C335,183 337,181 340,181 C337,181 335,179 335,176 C335,173 337,171 340,171 " fill="#FFFFFF" filter="url(#flro19btutkbf)" style="stroke: #000000; stroke-width: 1.5;"/><!--cluster V2Ray_Server--><polygon fill="#FFFFFF" filter="url(#flro19btutkbf)" points="327,246,337,236,534,236,534,306,524,316,327,316,327,246" style="stroke: #000000; stroke-width: 1.5;"/><line style="stroke: #000000; stroke-width: 1.5;" x1="524" x2="533" y1="246" y2="237"/><line style="stroke: #000000; stroke-width: 1.5;" x1="327" x2="524" y1="246" y2="246"/><line style="stroke: #000000; stroke-width: 1.5;" x1="524" x2="524" y1="246" y2="316"/><text fill="#000000" font-family="sans-serif" font-size="14" font-weight="bold" lengthAdjust="spacingAndGlyphs" textLength="89" x="382" y="263.6699">V2Ray_Server</text><!--entity Browser--><rect fill="#FEFECE" filter="url(#flro19btutkbf)" height="38.4639" style="stroke: #A80036; stroke-width: 1.5;" width="72" x="22" y="62"/><rect fill="#FEFECE" height="5" style="stroke: #A80036; stroke-width: 1.5;" width="10" x="17" y="67"/><rect fill="#FEFECE" height="5" style="stroke: #A80036; stroke-width: 1.5;" width="10" x="17" y="90.4639"/><text fill="#000000" font-family="sans-serif" font-size="14" lengthAdjust="spacingAndGlyphs" textLength="52" x="32" y="86.6699">Browser</text><!--entity SOCKS--><ellipse cx="159" cy="81" fill="#FEFECE" filter="url(#flro19btutkbf)" rx="8" ry="8" style="stroke: #A80036; stroke-width: 2.0;"/><text fill="#000000" font-family="sans-serif" font-size="14" lengthAdjust="spacingAndGlyphs" textLength="44" x="137" y="112.6699">SOCKS</text><!--entity i_SOCKS--><rect fill="#FEFECE" filter="url(#flro19btutkbf)" height="38.4639" style="stroke: #A80036; stroke-width: 1.5;" width="73" x="224.5" y="62"/><rect fill="#FEFECE" height="5" style="stroke: #A80036; stroke-width: 1.5;" width="10" x="219.5" y="67"/><rect fill="#FEFECE" height="5" style="stroke: #A80036; stroke-width: 1.5;" width="10" x="219.5" y="90.4639"/><text fill="#000000" font-family="sans-serif" font-size="14" lengthAdjust="spacingAndGlyphs" textLength="53" x="234.5" y="86.6699">i_SOCKS</text><!--entity o_vmess--><rect fill="#FEFECE" filter="url(#flro19btutkbf)" height="38.4639" style="stroke: #A80036; stroke-width: 1.5;" width="74" x="333" y="62"/><rect fill="#FEFECE" height="5" style="stroke: #A80036; stroke-width: 1.5;" width="10" x="328" y="67"/><rect fill="#FEFECE" height="5" style="stroke: #A80036; stroke-width: 1.5;" width="10" x="328" y="90.4639"/><text fill="#000000" font-family="sans-serif" font-size="14" lengthAdjust="spacingAndGlyphs" textLength="54" x="343" y="86.6699">o_vmess</text><!--entity GFW--><rect fill="#FEFECE" filter="url(#flro19btutkbf)" height="38.4639" style="stroke: #A80036; stroke-width: 1.5;" width="50" x="345" y="172"/><rect fill="#FEFECE" height="5" style="stroke: #A80036; stroke-width: 1.5;" width="10" x="340" y="177"/><rect fill="#FEFECE" height="5" style="stroke: #A80036; stroke-width: 1.5;" width="10" x="340" y="200.4639"/><text fill="#000000" font-family="sans-serif" font-size="14" lengthAdjust="spacingAndGlyphs" textLength="30" x="355" y="196.6699">GFW</text><!--entity i_vmess--><rect fill="#FEFECE" filter="url(#flro19btutkbf)" height="38.4639" style="stroke: #A80036; stroke-width: 1.5;" width="69" x="335.5" y="270"/><rect fill="#FEFECE" height="5" style="stroke: #A80036; stroke-width: 1.5;" width="10" x="330.5" y="275"/><rect fill="#FEFECE" height="5" style="stroke: #A80036; stroke-width: 1.5;" width="10" x="330.5" y="298.4639"/><text fill="#000000" font-family="sans-serif" font-size="14" lengthAdjust="spacingAndGlyphs" textLength="49" x="345.5" y="294.6699">i_vmess</text><!--entity o_freedom--><rect fill="#FEFECE" filter="url(#flro19btutkbf)" height="38.4639" style="stroke: #A80036; stroke-width: 1.5;" width="86" x="440" y="270"/><rect fill="#FEFECE" height="5" style="stroke: #A80036; stroke-width: 1.5;" width="10" x="435" y="275"/><rect fill="#FEFECE" height="5" style="stroke: #A80036; stroke-width: 1.5;" width="10" x="435" y="298.4639"/><text fill="#000000" font-family="sans-serif" font-size="14" lengthAdjust="spacingAndGlyphs" textLength="66" x="450" y="294.6699">o_freedom</text><!--link Browser to SOCKS--><path d="M94.178,81 C113.9467,81 136.9075,81 149.5071,81 " fill="none" id="Browser-SOCKS" style="stroke: #A80036; stroke-width: 1.0;"/><!--link i_SOCKS to o_vmess--><path d="M297.6172,81 C309.3982,81 321.1793,81 332.9604,81 " fill="none" id="i_SOCKS-o_vmess" style="stroke: #A80036; stroke-width: 1.0;"/><!--link SOCKS to i_SOCKS--><path d="M168.0518,81 C180.6309,81 204.1342,81 224.358,81 " fill="none" id="SOCKS-i_SOCKS" style="stroke: #A80036; stroke-width: 1.0;"/><polygon fill="#A80036" points="333,62,332.447,52.1667,330.716,57.5522,325.3305,55.8211,333,62" style="stroke: #A80036; stroke-width: 1.0;"/><line style="stroke: #A80036; stroke-width: 1.0;" x1="330.716" x2="370" y1="57.5522" y2="81"/><!--link i_vmess to o_freedom--><path d="M404.8711,289 C416.5701,289 428.2691,289 439.9681,289 " fill="none" id="i_vmess-o_freedom" style="stroke: #A80036; stroke-width: 1.0;"/><!--link o_vmess to GFW--><path d="M370,100.1605 C370,118.5811 370,146.5016 370,166.5239 " fill="none" id="o_vmess-GFW" style="stroke: #A80036; stroke-width: 1.0;"/><polygon fill="#A80036" points="370,171.69,374,162.69,370,166.69,366,162.69,370,171.69" style="stroke: #A80036; stroke-width: 1.0;"/><!--link GFW to i_vmess--><path d="M370,210.3616 C370,225.9317 370,247.897 370,264.6571 " fill="none" id="GFW-i_vmess" style="stroke: #A80036; stroke-width: 1.0;"/><polygon fill="#A80036" points="370,269.6786,374,260.6786,370,264.6786,366,260.6786,370,269.6786" style="stroke: #A80036; stroke-width: 1.0;"/><!--
@startuml
node "Home" {
[Browser] - SOCKS
}
node "V2Ray_Local" {
[i_SOCKS] - [o_vmess]
[SOCKS] -> [i_SOCKS]
}
cloud {
[GFW]
}
node "V2Ray_Server" {
[i_vmess] - [o_freedom]
}
[o_vmess] - -> [GFW]
[GFW] - -> [i_vmess]
@enduml

PlantUML version 1.2018.03(Fri Apr 06 00:59:15 CST 2018)
(GPL source distribution)
Java Runtime: OpenJDK Runtime Environment
JVM: OpenJDK 64-Bit Server VM
Java Version: 10.0.2+13
Operating System: Linux
OS Version: 4.18.9-arch1-1-ARCH
Default Encoding: UTF-8
Language: zh
Country: CN
--></g></svg>