<?xml version="1.0" encoding="UTF-8" standalone="no"?><svg xmlns="http://www.w3.org/2000/svg" xmlns:xlink="http://www.w3.org/1999/xlink" contentScriptType="application/ecmascript" contentStyleType="text/css" height="426px" preserveAspectRatio="none" style="width:909px;height:426px;" version="1.1" viewBox="0 0 909 426" width="909px" zoomAndPan="magnify"><defs><filter height="300%" id="f1edic4yupd9lo" width="300%" x="-1" y="-1"><feGaussianBlur result="blurOut" stdDeviation="2.0"/><feColorMatrix in="blurOut" result="blurOut2" type="matrix" values="0 0 0 0 0 0 0 0 0 0 0 0 0 0 0 0 0 0 .4 0"/><feOffset dx="4.0" dy="4.0" in="blurOut2" result="blurOut3"/><feBlend in="SourceGraphic" in2="blurOut3" mode="normal"/></filter></defs><g><!--cluster Home--><polygon fill="#FFFFFF" filter="url(#f1edic4yupd9lo)" points="14,26,24,16,197,16,197,110,187,120,14,120,14,26" style="stroke: #000000; stroke-width: 1.5;"/><line style="stroke: #000000; stroke-width: 1.5;" x1="187" x2="196" y1="26" y2="17"/><line style="stroke: #000000; stroke-width: 1.5;" x1="14" x2="187" y1="26" y2="26"/><line style="stroke: #000000; stroke-width: 1.5;" x1="187" x2="187" y1="26" y2="120"/><text fill="#000000" font-family="sans-serif" font-size="14" font-weight="bold" lengthAdjust="spacingAndGlyphs" textLength="38" x="82.5" y="43.6699">Home</text><!--cluster SS_Local--><polygon fill="#FFFFFF" filter="url(#f1edic4yupd9lo)" points="216,38,226,28,419,28,419,98,409,108,216,108,216,38" style="stroke: #000000; stroke-width: 1.5;"/><line style="stroke: #000000; stroke-width: 1.5;" x1="409" x2="418" y1="38" y2="29"/><line style="stroke: #000000; stroke-width: 1.5;" x1="216" x2="409" y1="38" y2="38"/><line style="stroke: #000000; stroke-width: 1.5;" x1="409" x2="409" y1="38" y2="108"/><text fill="#000000" font-family="sans-serif" font-size="14" font-weight="bold" lengthAdjust="spacingAndGlyphs" textLength="59" x="284" y="55.6699">SS_Local</text><path d="M349,171 C349,168 351,166 354,166 C357,166 359,168 359,171 C359,168 361,166 364,166 C367,166 369,168 369,171 C369,168 371,166 374,166 C377,166 379,168 379,171 C379,168 381,166 384,166 C387,166 389,168 389,171 C389,168 391,166 394,166 C397,166 399,168 399,171 C399,168 401,166 404,166 C407,166 409,168 409,171 C412,171 414,173 414,176 C414,179 412,181 409,181 C412,181 414,183 414,186 C414,189 412,191 409,191 C412,191 414,193 414,196 C414,199 412,201 409,201 C412,201 414,203 414,206 C414,209 412,211 409,211 C409,214 406,216 404,216 C401,216 399,214 399,211 C399,214 396,216 394,216 C391,216 389,214 389,211 C389,214 386,216 384,216 C381,216 379,214 379,211 C379,214 376,216 374,216 C371,216 369,214 369,211 C369,214 366,216 364,216 C361,216 359,214 359,211 C359,214 356,216 354,216 C351,216 349,214 349,211 C346,211 344,209 344,206 C344,203 346,201 349,201 C346,201 344,199 344,196 C344,193 346,191 349,191 C346,191 344,189 344,186 C344,183 346,181 349,181 C346,181 344,179 344,176 C344,173 346,171 349,171 " fill="#FFFFFF" filter="url(#f1edic4yupd9lo)" style="stroke: #000000; stroke-width: 1.5;"/><!--cluster V2Ray_2--><polygon fill="#FFFFFF" filter="url(#f1edic4yupd9lo)" points="341,246,351,236,540,236,540,306,530,316,341,316,341,246" style="stroke: #000000; stroke-width: 1.5;"/><line style="stroke: #000000; stroke-width: 1.5;" x1="530" x2="539" y1="246" y2="237"/><line style="stroke: #000000; stroke-width: 1.5;" x1="341" x2="530" y1="246" y2="246"/><line style="stroke: #000000; stroke-width: 1.5;" x1="530" x2="530" y1="246" y2="316"/><text fill="#000000" font-family="sans-serif" font-size="14" font-weight="bold" lengthAdjust="spacingAndGlyphs" textLength="55" x="409" y="263.6699">V2Ray_2</text><!--cluster V2Ray_3--><polygon fill="#FFFFFF" filter="url(#f1edic4yupd9lo)" points="438,344,448,334,661,334,661,404,651,414,438,414,438,344" style="stroke: #000000; stroke-width: 1.5;"/><line style="stroke: #000000; stroke-width: 1.5;" x1="651" x2="660" y1="344" y2="335"/><line style="stroke: #000000; stroke-width: 1.5;" x1="438" x2="651" y1="344" y2="344"/><line style="stroke: #000000; stroke-width: 1.5;" x1="651" x2="651" y1="344" y2="414"/><text fill="#000000" font-family="sans-serif" font-size="14" font-weight="bold" lengthAdjust="spacingAndGlyphs" textLength="55" x="518" y="361.6699">V2Ray_3</text><!--cluster V2Ray_4--><polygon fill="#FFFFFF" filter="url(#f1edic4yupd9lo)" points="680,344,690,334,887,334,887,404,877,414,680,414,680,344" style="stroke: #000000; stroke-width: 1.5;"/><line style="stroke: #000000; stroke-width: 1.5;" x1="877" x2="886" y1="344" y2="335"/><line style="stroke: #000000; stroke-width: 1.5;" x1="680" x2="877" y1="344" y2="344"/><line style="stroke: #000000; stroke-width: 1.5;" x1="877" x2="877" y1="344" y2="414"/><text fill="#000000" font-family="sans-serif" font-size="14" font-weight="bold" lengthAdjust="spacingAndGlyphs" textLength="55" x="752" y="361.6699">V2Ray_4</text><!--entity browser--><rect fill="#FEFECE" filter="url(#f1edic4yupd9lo)" height="38.4639" style="stroke: #A80036; stroke-width: 1.5;" width="71" x="22.5" y="62"/><rect fill="#FEFECE" height="5" style="stroke: #A80036; stroke-width: 1.5;" width="10" x="17.5" y="67"/><rect fill="#FEFECE" height="5" style="stroke: #A80036; stroke-width: 1.5;" width="10" x="17.5" y="90.4639"/><text fill="#000000" font-family="sans-serif" font-size="14" lengthAdjust="spacingAndGlyphs" textLength="51" x="32.5" y="86.6699">browser</text><!--entity SOCKS--><ellipse cx="159" cy="81" fill="#FEFECE" filter="url(#f1edic4yupd9lo)" rx="8" ry="8" style="stroke: #A80036; stroke-width: 2.0;"/><text fill="#000000" font-family="sans-serif" font-size="14" lengthAdjust="spacingAndGlyphs" textLength="44" x="137" y="112.6699">SOCKS</text><!--entity 1_i_SOCKS--><rect fill="#FEFECE" filter="url(#f1edic4yupd9lo)" height="38.4639" style="stroke: #A80036; stroke-width: 1.5;" width="87" x="224.5" y="62"/><rect fill="#FEFECE" height="5" style="stroke: #A80036; stroke-width: 1.5;" width="10" x="219.5" y="67"/><rect fill="#FEFECE" height="5" style="stroke: #A80036; stroke-width: 1.5;" width="10" x="219.5" y="90.4639"/><text fill="#000000" font-family="sans-serif" font-size="14" lengthAdjust="spacingAndGlyphs" textLength="67" x="234.5" y="86.6699">1_i_SOCKS</text><!--entity 1_o_SS--><rect fill="#FEFECE" filter="url(#f1edic4yupd9lo)" height="38.4639" style="stroke: #A80036; stroke-width: 1.5;" width="64" x="347" y="62"/><rect fill="#FEFECE" height="5" style="stroke: #A80036; stroke-width: 1.5;" width="10" x="342" y="67"/><rect fill="#FEFECE" height="5" style="stroke: #A80036; stroke-width: 1.5;" width="10" x="342" y="90.4639"/><text fill="#000000" font-family="sans-serif" font-size="14" lengthAdjust="spacingAndGlyphs" textLength="44" x="357" y="86.6699">1_o_SS</text><!--entity GFW--><rect fill="#FEFECE" filter="url(#f1edic4yupd9lo)" height="38.4639" style="stroke: #A80036; stroke-width: 1.5;" width="50" x="354" y="172"/><rect fill="#FEFECE" height="5" style="stroke: #A80036; stroke-width: 1.5;" width="10" x="349" y="177"/><rect fill="#FEFECE" height="5" style="stroke: #A80036; stroke-width: 1.5;" width="10" x="349" y="200.4639"/><text fill="#000000" font-family="sans-serif" font-size="14" lengthAdjust="spacingAndGlyphs" textLength="30" x="364" y="196.6699">GFW</text><!--entity 2_i_SS--><rect fill="#FEFECE" filter="url(#f1edic4yupd9lo)" height="38.4639" style="stroke: #A80036; stroke-width: 1.5;" width="59" x="349.5" y="270"/><rect fill="#FEFECE" height="5" style="stroke: #A80036; stroke-width: 1.5;" width="10" x="344.5" y="275"/><rect fill="#FEFECE" height="5" style="stroke: #A80036; stroke-width: 1.5;" width="10" x="344.5" y="298.4639"/><text fill="#000000" font-family="sans-serif" font-size="14" lengthAdjust="spacingAndGlyphs" textLength="39" x="359.5" y="294.6699">2_i_SS</text><!--entity 2_o_vmess--><rect fill="#FEFECE" filter="url(#f1edic4yupd9lo)" height="38.4639" style="stroke: #A80036; stroke-width: 1.5;" width="88" x="444" y="270"/><rect fill="#FEFECE" height="5" style="stroke: #A80036; stroke-width: 1.5;" width="10" x="439" y="275"/><rect fill="#FEFECE" height="5" style="stroke: #A80036; stroke-width: 1.5;" width="10" x="439" y="298.4639"/><text fill="#000000" font-family="sans-serif" font-size="14" lengthAdjust="spacingAndGlyphs" textLength="68" x="454" y="294.6699">2_o_vmess</text><!--entity 3_i_vmess--><rect fill="#FEFECE" filter="url(#f1edic4yupd9lo)" height="38.4639" style="stroke: #A80036; stroke-width: 1.5;" width="83" x="446.5" y="368"/><rect fill="#FEFECE" height="5" style="stroke: #A80036; stroke-width: 1.5;" width="10" x="441.5" y="373"/><rect fill="#FEFECE" height="5" style="stroke: #A80036; stroke-width: 1.5;" width="10" x="441.5" y="396.4639"/><text fill="#000000" font-family="sans-serif" font-size="14" lengthAdjust="spacingAndGlyphs" textLength="63" x="456.5" y="392.6699">3_i_vmess</text><!--entity 3_o_vmess--><rect fill="#FEFECE" filter="url(#f1edic4yupd9lo)" height="38.4639" style="stroke: #A80036; stroke-width: 1.5;" width="88" x="565" y="368"/><rect fill="#FEFECE" height="5" style="stroke: #A80036; stroke-width: 1.5;" width="10" x="560" y="373"/><rect fill="#FEFECE" height="5" style="stroke: #A80036; stroke-width: 1.5;" width="10" x="560" y="396.4639"/><text fill="#000000" font-family="sans-serif" font-size="14" lengthAdjust="spacingAndGlyphs" textLength="68" x="575" y="392.6699">3_o_vmess</text><!--entity 4_i_vmess--><rect fill="#FEFECE" filter="url(#f1edic4yupd9lo)" height="38.4639" style="stroke: #A80036; stroke-width: 1.5;" width="83" x="688.5" y="368"/><rect fill="#FEFECE" height="5" style="stroke: #A80036; stroke-width: 1.5;" width="10" x="683.5" y="373"/><rect fill="#FEFECE" height="5" style="stroke: #A80036; stroke-width: 1.5;" width="10" x="683.5" y="396.4639"/><text fill="#000000" font-family="sans-serif" font-size="14" lengthAdjust="spacingAndGlyphs" textLength="63" x="698.5" y="392.6699">4_i_vmess</text><!--entity 4_o_free--><rect fill="#FEFECE" filter="url(#f1edic4yupd9lo)" height="38.4639" style="stroke: #A80036; stroke-width: 1.5;" width="72" x="807" y="368"/><rect fill="#FEFECE" height="5" style="stroke: #A80036; stroke-width: 1.5;" width="10" x="802" y="373"/><rect fill="#FEFECE" height="5" style="stroke: #A80036; stroke-width: 1.5;" width="10" x="802" y="396.4639"/><text fill="#000000" font-family="sans-serif" font-size="14" lengthAdjust="spacingAndGlyphs" textLength="52" x="817" y="392.6699">4_o_free</text><!--link browser to SOCKS--><path d="M93.6088,81 C113.4441,81 136.6455,81 149.3913,81 " fill="none" id="browser-SOCKS" style="stroke: #A80036; stroke-width: 1.0;"/><!--link 1_i_SOCKS to 1_o_SS--><path d="M311.793,81 C323.5192,81 335.2454,81 346.9716,81 " fill="none" id="1_i_SOCKS-1_o_SS" style="stroke: #A80036; stroke-width: 1.0;"/><!--link SOCKS to 1_i_SOCKS--><path d="M168.2933,81 C180.7521,81 203.7084,81 224.4553,81 " fill="none" id="SOCKS-1_i_SOCKS" style="stroke: #A80036; stroke-width: 1.0;"/><polygon fill="#A80036" points="347,62,345.8446,52.2192,344.4473,57.7007,338.9657,56.3035,347,62" style="stroke: #A80036; stroke-width: 1.0;"/><line style="stroke: #A80036; stroke-width: 1.0;" x1="344.4473" x2="379" y1="57.7007" y2="81"/><!--link 1_o_SS to GFW--><path d="M379,100.1605 C379,118.5811 379,146.5016 379,166.5239 " fill="none" id="1_o_SS-GFW" style="stroke: #A80036; stroke-width: 1.0;"/><polygon fill="#A80036" points="379,171.69,383,162.69,379,166.69,375,162.69,379,171.69" style="stroke: #A80036; stroke-width: 1.0;"/><!--link 2_i_SS to 2_o_vmess--><path d="M408.8047,289 C420.4571,289 432.1096,289 443.762,289 " fill="none" id="2_i_SS-2_o_vmess" style="stroke: #A80036; stroke-width: 1.0;"/><!--link GFW to 2_i_SS--><path d="M379,210.3616 C379,225.9317 379,247.897 379,264.6571 " fill="none" id="GFW-2_i_SS" style="stroke: #A80036; stroke-width: 1.0;"/><polygon fill="#A80036" points="379,269.6786,383,260.6786,379,264.6786,375,260.6786,379,269.6786" style="stroke: #A80036; stroke-width: 1.0;"/><!--link 3_i_vmess to 3_o_vmess--><path d="M529.5938,387 C541.3806,387 553.1675,387 564.9543,387 " fill="none" id="3_i_vmess-3_o_vmess" style="stroke: #A80036; stroke-width: 1.0;"/><!--link 2_o_vmess to 3_i_vmess--><path d="M488,308.3616 C488,323.9317 488,345.897 488,362.6571 " fill="none" id="2_o_vmess-3_i_vmess" style="stroke: #A80036; stroke-width: 1.0;"/><polygon fill="#A80036" points="488,367.6786,492,358.6786,488,362.6786,484,358.6786,488,367.6786" style="stroke: #A80036; stroke-width: 1.0;"/><!--link 4_i_vmess to 4_o_free--><path d="M771.9336,387 C783.5929,387 795.2523,387 806.9116,387 " fill="none" id="4_i_vmess-4_o_free" style="stroke: #A80036; stroke-width: 1.0;"/><!--link 3_o_vmess to 4_i_vmess--><path d="M653.4297,400.2446 C663.3632,401.4875 673.2967,401.578 683.2301,400.5161 " fill="none" id="3_o_vmess-4_i_vmess" style="stroke: #A80036; stroke-width: 1.0;"/><polygon fill="#A80036" points="688.4247,399.8557,678.992,397.0229,683.4646,400.4864,680.0012,404.959,688.4247,399.8557" style="stroke: #A80036; stroke-width: 1.0;"/><!--
@startuml

node "Home" {
    [browser] - SOCKS
}
node "SS_Local" {
    [1_i_SOCKS] - [1_o_SS]

    SOCKS -> [1_i_SOCKS] 
}
cloud {
    [GFW]
    [1_o_SS] - -> [GFW]
}
node "V2Ray_2" {
    [2_i_SS] - [2_o_vmess]
    [GFW] - -> [2_i_SS]
}
node "V2Ray_3" {
    [3_i_vmess] - [3_o_vmess]
    [2_o_vmess] - -> [3_i_vmess]
}
node "V2Ray_4" {
    [4_i_vmess] - [4_o_free]
    [3_o_vmess] -> [4_i_vmess]
}

@enduml

PlantUML version 1.2018.03(Fri Apr 06 00:59:15 CST 2018)
(GPL source distribution)
Java Runtime: OpenJDK Runtime Environment
JVM: OpenJDK 64-Bit Server VM
Java Version: 10.0.2+13
Operating System: Linux
OS Version: 4.18.9-arch1-1-ARCH
Default Encoding: UTF-8
Language: zh
Country: CN
--></g></svg>