<?xml version="1.0" encoding="UTF-8" standalone="no"?><svg xmlns="http://www.w3.org/2000/svg" xmlns:xlink="http://www.w3.org/1999/xlink" contentScriptType="application/ecmascript" contentStyleType="text/css" height="206px" preserveAspectRatio="none" style="width:545px;height:206px;" version="1.1" viewBox="0 0 545 206" width="545px" zoomAndPan="magnify"><defs><filter height="300%" id="f1ozmbzrfiietp" width="300%" x="-1" y="-1"><feGaussianBlur result="blurOut" stdDeviation="2.0"/><feColorMatrix in="blurOut" result="blurOut2" type="matrix" values="0 0 0 0 0 0 0 0 0 0 0 0 0 0 0 0 0 0 .4 0"/><feOffset dx="4.0" dy="4.0" in="blurOut2" result="blurOut3"/><feBlend in="SourceGraphic" in2="blurOut3" mode="normal"/></filter></defs><g><!--cluster Client--><polygon fill="#FFFFFF" filter="url(#f1ozmbzrfiietp)" points="14,26,24,16,398,16,398,86,388,96,14,96,14,26" style="stroke: #000000; stroke-width: 1.5;"/><line style="stroke: #000000; stroke-width: 1.5;" x1="388" x2="397" y1="26" y2="17"/><line style="stroke: #000000; stroke-width: 1.5;" x1="14" x2="388" y1="26" y2="26"/><line style="stroke: #000000; stroke-width: 1.5;" x1="388" x2="388" y1="26" y2="96"/><text fill="#000000" font-family="sans-serif" font-size="14" font-weight="bold" lengthAdjust="spacingAndGlyphs" textLength="38" x="183" y="43.6699">Client</text><!--cluster Server--><polygon fill="#FFFFFF" filter="url(#f1ozmbzrfiietp)" points="295,124,305,114,523,114,523,184,513,194,295,194,295,124" style="stroke: #000000; stroke-width: 1.5;"/><line style="stroke: #000000; stroke-width: 1.5;" x1="513" x2="522" y1="124" y2="115"/><line style="stroke: #000000; stroke-width: 1.5;" x1="295" x2="513" y1="124" y2="124"/><line style="stroke: #000000; stroke-width: 1.5;" x1="513" x2="513" y1="124" y2="194"/><text fill="#000000" font-family="sans-serif" font-size="14" font-weight="bold" lengthAdjust="spacingAndGlyphs" textLength="42" x="384" y="141.6699">Server</text><!--entity in_MTProto--><rect fill="#FEFECE" filter="url(#f1ozmbzrfiietp)" height="38.4639" style="stroke: #A80036; stroke-width: 1.5;" width="92" x="22" y="50"/><rect fill="#FEFECE" height="5" style="stroke: #A80036; stroke-width: 1.5;" width="10" x="17" y="55"/><rect fill="#FEFECE" height="5" style="stroke: #A80036; stroke-width: 1.5;" width="10" x="17" y="78.4639"/><text fill="#000000" font-family="sans-serif" font-size="14" lengthAdjust="spacingAndGlyphs" textLength="72" x="32" y="74.6699">in_MTProto</text><!--entity out1_MTProto--><rect fill="#FEFECE" filter="url(#f1ozmbzrfiietp)" height="38.4639" style="stroke: #A80036; stroke-width: 1.5;" width="110" x="149" y="50"/><rect fill="#FEFECE" height="5" style="stroke: #A80036; stroke-width: 1.5;" width="10" x="144" y="55"/><rect fill="#FEFECE" height="5" style="stroke: #A80036; stroke-width: 1.5;" width="10" x="144" y="78.4639"/><text fill="#000000" font-family="sans-serif" font-size="14" lengthAdjust="spacingAndGlyphs" textLength="90" x="159" y="74.6699">out1_MTProto</text><!--entity out2_vmess--><rect fill="#FEFECE" filter="url(#f1ozmbzrfiietp)" height="38.4639" style="stroke: #A80036; stroke-width: 1.5;" width="95" x="294.5" y="50"/><rect fill="#FEFECE" height="5" style="stroke: #A80036; stroke-width: 1.5;" width="10" x="289.5" y="55"/><rect fill="#FEFECE" height="5" style="stroke: #A80036; stroke-width: 1.5;" width="10" x="289.5" y="78.4639"/><text fill="#000000" font-family="sans-serif" font-size="14" lengthAdjust="spacingAndGlyphs" textLength="75" x="304.5" y="74.6699">out2_vmess</text><!--entity in_vmess--><rect fill="#FEFECE" filter="url(#f1ozmbzrfiietp)" height="38.4639" style="stroke: #A80036; stroke-width: 1.5;" width="77" x="303.5" y="148"/><rect fill="#FEFECE" height="5" style="stroke: #A80036; stroke-width: 1.5;" width="10" x="298.5" y="153"/><rect fill="#FEFECE" height="5" style="stroke: #A80036; stroke-width: 1.5;" width="10" x="298.5" y="176.4639"/><text fill="#000000" font-family="sans-serif" font-size="14" lengthAdjust="spacingAndGlyphs" textLength="57" x="313.5" y="172.6699">in_vmess</text><!--entity out_freedom--><rect fill="#FEFECE" filter="url(#f1ozmbzrfiietp)" height="38.4639" style="stroke: #A80036; stroke-width: 1.5;" width="99" x="415.5" y="148"/><rect fill="#FEFECE" height="5" style="stroke: #A80036; stroke-width: 1.5;" width="10" x="410.5" y="153"/><rect fill="#FEFECE" height="5" style="stroke: #A80036; stroke-width: 1.5;" width="10" x="410.5" y="176.4639"/><text fill="#000000" font-family="sans-serif" font-size="14" lengthAdjust="spacingAndGlyphs" textLength="79" x="425.5" y="172.6699">out_freedom</text><!--link in_MTProto to out1_MTProto--><path d="M114.2188,69 C124.0742,69 133.9296,69 143.7851,69 " fill="none" id="in_MTProto-out1_MTProto" style="stroke: #A80036; stroke-width: 1.0;"/><polygon fill="#A80036" points="148.9388,69,139.9388,65,143.9388,69,139.9388,73,148.9388,69" style="stroke: #A80036; stroke-width: 1.0;"/><!--link out1_MTProto to out2_vmess--><path d="M259.2539,69 C269.2546,69 279.2553,69 289.2559,69 " fill="none" id="out1_MTProto-out2_vmess" style="stroke: #A80036; stroke-width: 1.0;"/><polygon fill="#A80036" points="294.4856,69,285.4856,65,289.4856,69,285.4856,73,294.4856,69" style="stroke: #A80036; stroke-width: 1.0;"/><!--link in_vmess to out_freedom--><path d="M380.918,167 C392.4136,167 403.9091,167 415.4047,167 " fill="none" id="in_vmess-out_freedom" style="stroke: #A80036; stroke-width: 1.0;"/><!--link out2_vmess to in_vmess--><path d="M342,88.3616 C342,103.9317 342,125.897 342,142.6571 " fill="none" id="out2_vmess-in_vmess" style="stroke: #A80036; stroke-width: 1.0;"/><polygon fill="#A80036" points="342,147.6786,346,138.6786,342,142.6786,338,138.6786,342,147.6786" style="stroke: #A80036; stroke-width: 1.0;"/><!--
@startuml
node "Client" {
    [in_MTProto]
    [out1_MTProto]
    [out2_vmess]
    [in_MTProto] -> [out1_MTProto] 
    [out1_MTProto] -> [out2_vmess]
    
}
node "Server" {
    [in_vmess] - [out_freedom]
    [out2_vmess] - -> [in_vmess]
}

@enduml

PlantUML version 1.2018.03(Fri Apr 06 00:59:15 CST 2018)
(GPL source distribution)
Java Runtime: OpenJDK Runtime Environment
JVM: OpenJDK 64-Bit Server VM
Java Version: 10.0.2+13
Operating System: Linux
OS Version: 4.18.9-arch1-1-ARCH
Default Encoding: UTF-8
Language: zh
Country: CN
--></g></svg>