<?xml version="1.0" encoding="UTF-8" standalone="no"?><svg xmlns="http://www.w3.org/2000/svg" xmlns:xlink="http://www.w3.org/1999/xlink" contentScriptType="application/ecmascript" contentStyleType="text/css" height="304px" preserveAspectRatio="none" style="width:555px;height:304px;" version="1.1" viewBox="0 0 555 304" width="555px" zoomAndPan="magnify"><defs><filter height="300%" id="f32bj6bn4b789" width="300%" x="-1" y="-1"><feGaussianBlur result="blurOut" stdDeviation="2.0"/><feColorMatrix in="blurOut" result="blurOut2" type="matrix" values="0 0 0 0 0 0 0 0 0 0 0 0 0 0 0 0 0 0 .4 0"/><feOffset dx="4.0" dy="4.0" in="blurOut2" result="blurOut3"/><feBlend in="SourceGraphic" in2="blurOut3" mode="normal"/></filter></defs><g><!--cluster Client--><polygon fill="#FFFFFF" filter="url(#f32bj6bn4b789)" points="14,26,24,16,533,16,533,282,523,292,14,292,14,26" style="stroke: #000000; stroke-width: 1.5;"/><line style="stroke: #000000; stroke-width: 1.5;" x1="523" x2="532" y1="26" y2="17"/><line style="stroke: #000000; stroke-width: 1.5;" x1="14" x2="523" y1="26" y2="26"/><line style="stroke: #000000; stroke-width: 1.5;" x1="523" x2="523" y1="26" y2="292"/><text fill="#000000" font-family="sans-serif" font-size="14" font-weight="bold" lengthAdjust="spacingAndGlyphs" textLength="38" x="250.5" y="43.6699">Client</text><!--entity in_SOCKS--><rect fill="#FEFECE" filter="url(#f32bj6bn4b789)" height="38.4639" style="stroke: #A80036; stroke-width: 1.5;" width="81" x="218.5" y="50"/><rect fill="#FEFECE" height="5" style="stroke: #A80036; stroke-width: 1.5;" width="10" x="213.5" y="55"/><rect fill="#FEFECE" height="5" style="stroke: #A80036; stroke-width: 1.5;" width="10" x="213.5" y="78.4639"/><text fill="#000000" font-family="sans-serif" font-size="14" lengthAdjust="spacingAndGlyphs" textLength="61" x="228.5" y="74.6699">in_SOCKS</text><!--entity router--><rect fill="#FEFECE" filter="url(#f32bj6bn4b789)" height="38.4639" style="stroke: #A80036; stroke-width: 1.5;" width="58" x="230" y="148"/><rect fill="#FEFECE" height="5" style="stroke: #A80036; stroke-width: 1.5;" width="10" x="225" y="153"/><rect fill="#FEFECE" height="5" style="stroke: #A80036; stroke-width: 1.5;" width="10" x="225" y="176.4639"/><text fill="#000000" font-family="sans-serif" font-size="14" lengthAdjust="spacingAndGlyphs" textLength="38" x="240" y="172.6699">router</text><!--entity out1_vmess--><rect fill="#FEFECE" filter="url(#f32bj6bn4b789)" height="38.4639" style="stroke: #A80036; stroke-width: 1.5;" width="95" x="22.5" y="246"/><rect fill="#FEFECE" height="5" style="stroke: #A80036; stroke-width: 1.5;" width="10" x="17.5" y="251"/><rect fill="#FEFECE" height="5" style="stroke: #A80036; stroke-width: 1.5;" width="10" x="17.5" y="274.4639"/><text fill="#000000" font-family="sans-serif" font-size="14" lengthAdjust="spacingAndGlyphs" textLength="75" x="32.5" y="270.6699">out1_vmess</text><!--entity out2_http--><rect fill="#FEFECE" filter="url(#f32bj6bn4b789)" height="38.4639" style="stroke: #A80036; stroke-width: 1.5;" width="81" x="152.5" y="246"/><rect fill="#FEFECE" height="5" style="stroke: #A80036; stroke-width: 1.5;" width="10" x="147.5" y="251"/><rect fill="#FEFECE" height="5" style="stroke: #A80036; stroke-width: 1.5;" width="10" x="147.5" y="274.4639"/><text fill="#000000" font-family="sans-serif" font-size="14" lengthAdjust="spacingAndGlyphs" textLength="61" x="162.5" y="270.6699">out2_http</text><!--entity out3_blackhole--><rect fill="#FEFECE" filter="url(#f32bj6bn4b789)" height="38.4639" style="stroke: #A80036; stroke-width: 1.5;" width="114" x="269" y="246"/><rect fill="#FEFECE" height="5" style="stroke: #A80036; stroke-width: 1.5;" width="10" x="264" y="251"/><rect fill="#FEFECE" height="5" style="stroke: #A80036; stroke-width: 1.5;" width="10" x="264" y="274.4639"/><text fill="#000000" font-family="sans-serif" font-size="14" lengthAdjust="spacingAndGlyphs" textLength="94" x="279" y="270.6699">out3_blackhole</text><!--entity out4_freedom--><rect fill="#FEFECE" filter="url(#f32bj6bn4b789)" height="38.4639" style="stroke: #A80036; stroke-width: 1.5;" width="107" x="418.5" y="246"/><rect fill="#FEFECE" height="5" style="stroke: #A80036; stroke-width: 1.5;" width="10" x="413.5" y="251"/><rect fill="#FEFECE" height="5" style="stroke: #A80036; stroke-width: 1.5;" width="10" x="413.5" y="274.4639"/><text fill="#000000" font-family="sans-serif" font-size="14" lengthAdjust="spacingAndGlyphs" textLength="87" x="428.5" y="270.6699">out4_freedom</text><!--link in_SOCKS to router--><path d="M259,88.3616 C259,103.9317 259,125.897 259,142.6571 " fill="none" id="in_SOCKS-router" style="stroke: #A80036; stroke-width: 1.0;"/><polygon fill="#A80036" points="259,147.6786,263,138.6786,259,142.6786,255,138.6786,259,147.6786" style="stroke: #A80036; stroke-width: 1.0;"/><!--link router to out1_vmess--><path d="M229.8829,182.0977 C198.2708,198.4892 147.5123,224.8084 111.6799,243.3882 " fill="none" id="router-out1_vmess" style="stroke: #A80036; stroke-width: 1.0;"/><polygon fill="#A80036" points="106.9469,245.8424,116.778,245.2505,111.3857,243.5408,113.0954,238.1485,106.9469,245.8424" style="stroke: #A80036; stroke-width: 1.0;"/><!--link router to out2_http--><path d="M245.9605,186.3616 C235.2938,202.2001 220.1702,224.6563 208.8135,241.5193 " fill="none" id="router-out2_http" style="stroke: #A80036; stroke-width: 1.0;"/><polygon fill="#A80036" points="206.0124,245.6786,214.3575,240.448,208.8054,241.5314,207.7219,235.9792,206.0124,245.6786" style="stroke: #A80036; stroke-width: 1.0;"/><!--link router to out3_blackhole--><path d="M272.237,186.3616 C283.0654,202.2001 298.4181,224.6563 309.9469,241.5193 " fill="none" id="router-out3_blackhole" style="stroke: #A80036; stroke-width: 1.0;"/><polygon fill="#A80036" points="312.7905,245.6786,311.0131,235.9914,309.9686,241.551,304.409,240.5065,312.7905,245.6786" style="stroke: #A80036; stroke-width: 1.0;"/><!--link router to out4_freedom--><path d="M288.1701,180.421 C323.6059,196.7248 383.8229,224.4303 425.6389,243.6696 " fill="none" id="router-out4_freedom" style="stroke: #A80036; stroke-width: 1.0;"/><polygon fill="#A80036" points="430.3892,245.8551,423.8851,238.4593,425.847,243.7651,420.5412,245.7269,430.3892,245.8551" style="stroke: #A80036; stroke-width: 1.0;"/><!--
@startuml
node "Client" {
[in_SOCKS] - -> [router]
[router] - -> [out1_vmess]
[router] - -> [out2_http]
[router] - -> [out3_blackhole]
[router] - -> [out4_freedom]

}

@enduml

PlantUML version 1.2018.03(Fri Apr 06 00:59:15 CST 2018)
(GPL source distribution)
Java Runtime: OpenJDK Runtime Environment
JVM: OpenJDK 64-Bit Server VM
Java Version: 10.0.2+13
Operating System: Linux
OS Version: 4.18.9-arch1-1-ARCH
Default Encoding: UTF-8
Language: zh
Country: CN
--></g></svg>